<svg width="78" height="78" viewBox="0 0 78 78" fill="none" xmlns="http://www.w3.org/2000/svg">
<rect width="78" height="78" rx="39" fill="white"/>
<path d="M42.8625 28.1621C43.1 28.1621 43.3375 28.2496 43.525 28.4371C43.8875 28.7996 43.8875 29.3996 43.525 29.7621L35.375 37.9121C34.775 38.5121 34.775 39.4871 35.375 40.0871L43.525 48.2371C43.8875 48.5996 43.8875 49.1996 43.525 49.5621C43.1625 49.9246 42.5625 49.9246 42.2 49.5621L34.05 41.4121C33.4125 40.7746 33.05 39.9121 33.05 38.9996C33.05 38.0871 33.4 37.2246 34.05 36.5871L42.2 28.4371C42.3875 28.2621 42.625 28.1621 42.8625 28.1621Z" fill="#303030"/>
</svg>
