<svg width="41" height="33" viewBox="0 0 41 33" fill="none" xmlns="http://www.w3.org/2000/svg">
<rect x="1" width="40" height="1" fill="#303030"/>
<rect x="21" y="7" width="20" height="1" fill="#303030"/>
<rect x="1" y="14" width="40" height="1" fill="#303030"/>
<path d="M3.93066 30.1641C3.24707 30.1641 2.65234 29.9932 2.14648 29.6514C1.64062 29.3096 1.2487 28.8424 0.970703 28.25C0.692708 27.653 0.553711 26.9762 0.553711 26.2197C0.553711 25.4495 0.694987 24.7682 0.977539 24.1758C1.26009 23.5788 1.6543 23.1094 2.16016 22.7676C2.66602 22.4258 3.25163 22.2549 3.91699 22.2549C4.42741 22.2549 4.88997 22.3551 5.30469 22.5557C5.7194 22.7516 6.0612 23.0296 6.33008 23.3896C6.60352 23.7451 6.77441 24.1598 6.84277 24.6338H5.9541C5.8903 24.3467 5.76725 24.0846 5.58496 23.8477C5.40723 23.6107 5.17708 23.4215 4.89453 23.2803C4.61654 23.1344 4.29525 23.0615 3.93066 23.0615C3.44303 23.0615 3.01237 23.1937 2.63867 23.458C2.26497 23.7223 1.97103 24.0892 1.75684 24.5586C1.5472 25.028 1.44238 25.5726 1.44238 26.1924C1.44238 26.8076 1.54492 27.3545 1.75 27.833C1.95508 28.3115 2.24447 28.6852 2.61816 28.9541C2.99642 29.223 3.43392 29.3574 3.93066 29.3574C4.43652 29.3574 4.87402 29.2139 5.24316 28.9268C5.6123 28.6396 5.84928 28.2546 5.9541 27.7715H6.84277C6.77897 28.2318 6.61491 28.6419 6.35059 29.002C6.09082 29.362 5.75358 29.6468 5.33887 29.8564C4.92871 30.0615 4.45931 30.1641 3.93066 30.1641ZM11.7852 30V29.3232L15.1143 25.5771C15.5426 25.0895 15.889 24.6725 16.1533 24.3262C16.4176 23.9753 16.6113 23.654 16.7344 23.3623C16.8574 23.0661 16.9189 22.7585 16.9189 22.4395C16.9189 22.0521 16.8278 21.7126 16.6455 21.4209C16.4632 21.1292 16.2148 20.9036 15.9004 20.7441C15.5905 20.5846 15.2373 20.5049 14.8408 20.5049C14.4215 20.5049 14.0547 20.5938 13.7402 20.7715C13.4303 20.9492 13.1888 21.1953 13.0156 21.5098C12.847 21.8197 12.7627 22.1751 12.7627 22.5762H11.874C11.874 22.0156 12.0039 21.5166 12.2637 21.0791C12.5234 20.6416 12.8789 20.2998 13.3301 20.0537C13.7812 19.8031 14.2939 19.6777 14.8682 19.6777C15.4378 19.6777 15.9414 19.8008 16.3789 20.0469C16.821 20.2884 17.1673 20.6188 17.418 21.0381C17.6686 21.4528 17.7939 21.9199 17.7939 22.4395C17.7939 22.8132 17.7279 23.1755 17.5957 23.5264C17.4681 23.8727 17.2448 24.2624 16.9258 24.6953C16.6068 25.1283 16.167 25.6546 15.6064 26.2744L13.0771 29.0977V29.166H18.1152V30H11.7852ZM23.0713 30.1367C22.3558 30.1367 21.7428 29.9294 21.2324 29.5146C20.7266 29.0999 20.3392 28.5052 20.0703 27.7305C19.8014 26.9512 19.667 26.0124 19.667 24.9141C19.667 23.8158 19.8014 22.877 20.0703 22.0977C20.3392 21.3138 20.7288 20.7145 21.2393 20.2998C21.7497 19.8851 22.3604 19.6777 23.0713 19.6777C23.7822 19.6777 24.3906 19.8851 24.8965 20.2998C25.4023 20.7145 25.7897 21.3138 26.0586 22.0977C26.332 22.877 26.4688 23.8158 26.4688 24.9141C26.4688 26.0124 26.3343 26.9512 26.0654 27.7305C25.7965 28.5052 25.4092 29.0999 24.9033 29.5146C24.3975 29.9294 23.7868 30.1367 23.0713 30.1367ZM23.0713 29.3096C23.5999 29.3096 24.0511 29.1364 24.4248 28.79C24.7985 28.4391 25.0833 27.9355 25.2793 27.2793C25.4798 26.623 25.5801 25.8346 25.5801 24.9141C25.5801 23.9889 25.4798 23.1982 25.2793 22.542C25.0833 21.8812 24.7985 21.3776 24.4248 21.0312C24.0511 20.6803 23.5999 20.5049 23.0713 20.5049C22.2738 20.5049 21.654 20.8945 21.2119 21.6738C20.7744 22.4486 20.5557 23.5286 20.5557 24.9141C20.5557 25.8346 20.6536 26.623 20.8496 27.2793C21.0501 27.9355 21.3372 28.4391 21.7109 28.79C22.0892 29.1364 22.5426 29.3096 23.0713 29.3096ZM31.0557 19.8145V30H30.1465V20.792H30.085L27.7061 22.3779V21.4209L30.1055 19.8145H31.0557ZM33.0996 30V29.3232L36.4287 25.5771C36.8571 25.0895 37.2035 24.6725 37.4678 24.3262C37.7321 23.9753 37.9258 23.654 38.0488 23.3623C38.1719 23.0661 38.2334 22.7585 38.2334 22.4395C38.2334 22.0521 38.1423 21.7126 37.96 21.4209C37.7777 21.1292 37.5293 20.9036 37.2148 20.7441C36.9049 20.5846 36.5518 20.5049 36.1553 20.5049C35.736 20.5049 35.3691 20.5938 35.0547 20.7715C34.7448 20.9492 34.5033 21.1953 34.3301 21.5098C34.1615 21.8197 34.0771 22.1751 34.0771 22.5762H33.1885C33.1885 22.0156 33.3184 21.5166 33.5781 21.0791C33.8379 20.6416 34.1934 20.2998 34.6445 20.0537C35.0957 19.8031 35.6084 19.6777 36.1826 19.6777C36.7523 19.6777 37.2559 19.8008 37.6934 20.0469C38.1354 20.2884 38.4818 20.6188 38.7324 21.0381C38.9831 21.4528 39.1084 21.9199 39.1084 22.4395C39.1084 22.8132 39.0423 23.1755 38.9102 23.5264C38.7826 23.8727 38.5592 24.2624 38.2402 24.6953C37.9212 25.1283 37.4814 25.6546 36.9209 26.2744L34.3916 29.0977V29.166H39.4297V30H33.0996Z" fill="#303030"/>
</svg>
