<svg width="82" height="24" viewBox="0 0 82 24" fill="none" xmlns="http://www.w3.org/2000/svg">
<path d="M6.41194 18.7866C5.08452 18.7866 3.94132 18.4944 2.9823 17.9101C2.02913 17.3197 1.29233 16.4914 0.771889 15.4252C0.257296 14.3528 0 13.0967 0 11.657C0 10.2353 0.257296 8.98226 0.771889 7.89791C1.29233 6.81355 2.01744 5.96716 2.94722 5.35871C3.88284 4.75028 4.97635 4.44606 6.22774 4.44606C6.98793 4.44606 7.72473 4.57558 8.43814 4.83461C9.15156 5.09365 9.79187 5.50028 10.3591 6.05451C10.9263 6.60873 11.3736 7.32863 11.7011 8.21417C12.0286 9.09371 12.1923 10.163 12.1923 11.4221V12.3799H1.48238V10.3558H9.62229C9.62229 9.64492 9.48195 9.0154 9.20126 8.46719C8.92057 7.91296 8.52586 7.47621 8.01711 7.15693C7.51422 6.83765 6.9236 6.67801 6.24528 6.67801C5.50848 6.67801 4.86524 6.86476 4.31556 7.23826C3.77173 7.60573 3.3507 8.08767 3.05247 8.68407C2.76009 9.27443 2.61389 9.91601 2.61389 10.6087V12.1901C2.61389 13.1178 2.77178 13.907 3.08755 14.5577C3.40918 15.2082 3.85652 15.7053 4.42959 16.0486C5.00266 16.386 5.67221 16.5547 6.43825 16.5547C6.93531 16.5547 7.3885 16.4823 7.79783 16.3377C8.20716 16.1872 8.56095 15.9643 8.85917 15.6691C9.15741 15.374 9.38547 15.0094 9.54335 14.5757L12.0257 15.0366C11.8269 15.7896 11.4702 16.4493 10.9556 17.0156C10.4468 17.5758 9.8065 18.0125 9.03461 18.3257C8.26856 18.633 7.39434 18.7866 6.41194 18.7866ZM26.9021 24.0005C25.8319 24.0005 24.9109 23.856 24.139 23.5668C23.373 23.2776 22.7474 22.8951 22.262 22.4191C21.7766 21.9433 21.414 21.4222 21.1743 20.8559L23.4286 19.8981C23.5864 20.1631 23.797 20.4433 24.0601 20.7384C24.3291 21.0396 24.6917 21.2957 25.1478 21.5065C25.6097 21.7174 26.2033 21.8228 26.9284 21.8228C27.9225 21.8228 28.7441 21.5727 29.3932 21.0728C30.0422 20.5788 30.3668 19.7896 30.3668 18.7053V15.9763H30.2002C30.0422 16.2715 29.8143 16.5998 29.516 16.9613C29.2236 17.3227 28.8201 17.636 28.3055 17.9011C27.7909 18.1661 27.1214 18.2987 26.2968 18.2987C25.2325 18.2987 24.2735 18.0426 23.4198 17.5305C22.5719 17.0125 21.8994 16.2505 21.4024 15.2444C20.9112 14.2323 20.6655 12.9884 20.6655 11.5124C20.6655 10.0365 20.9082 8.77141 21.3936 7.71718C21.8848 6.66295 22.5573 5.85571 23.4111 5.29546C24.2648 4.72919 25.2325 4.44606 26.3144 4.44606C27.1506 4.44606 27.826 4.59063 28.3406 4.8798C28.8552 5.16293 29.2557 5.49426 29.5422 5.87379C29.8346 6.2533 30.0598 6.58764 30.2177 6.87681H30.4107V4.62678H32.9807V18.8137C32.9807 20.0065 32.7117 20.9855 32.1738 21.7505C31.6357 22.5156 30.9078 23.0818 29.9896 23.4493C29.0774 23.8168 28.0482 24.0005 26.9021 24.0005ZM26.8757 16.0576C27.6301 16.0576 28.2675 15.8769 28.7879 15.5155C29.3143 15.148 29.7118 14.6239 29.9809 13.9431C30.2557 13.2564 30.3931 12.4341 30.3931 11.4762C30.3931 10.5425 30.2587 9.72022 29.9896 9.00936C29.7206 8.29852 29.3259 7.74429 28.8054 7.34669C28.2851 6.94307 27.6418 6.74126 26.8757 6.74126C26.0863 6.74126 25.4285 6.95211 24.9022 7.3738C24.3759 7.78948 23.9783 8.35575 23.7092 9.07262C23.4462 9.7895 23.3145 10.5907 23.3145 11.4762C23.3145 12.3859 23.4491 13.1841 23.7181 13.8708C23.987 14.5577 24.3847 15.0937 24.9109 15.4793C25.4431 15.8649 26.0981 16.0576 26.8757 16.0576ZM36.4981 18.5065V4.62678H39.033V6.83163H39.1734C39.4189 6.08463 39.8517 5.49727 40.4716 5.06955C41.0972 4.63581 41.8048 4.41895 42.5943 4.41895C42.758 4.41895 42.951 4.42497 43.1732 4.43701C43.4012 4.44907 43.5796 4.46412 43.7082 4.4822V7.06657C43.603 7.03645 43.4159 7.00332 43.1468 6.96717C42.8778 6.925 42.6089 6.90392 42.3398 6.90392C41.72 6.90392 41.1674 7.03946 40.682 7.31055C40.2025 7.57561 39.8225 7.9461 39.5418 8.42201C39.261 8.8919 39.1208 9.42805 39.1208 10.0305V18.5065H36.4981ZM51.1706 18.7866C49.9074 18.7866 48.8052 18.4885 47.8637 17.8921C46.9222 17.2957 46.1913 16.4613 45.6708 15.389C45.1503 14.3167 44.8902 13.0637 44.8902 11.6299C44.8902 10.1901 45.1503 8.93105 45.6708 7.85272C46.1913 6.7744 46.9222 5.93704 47.8637 5.34065C48.8052 4.74425 49.9074 4.44606 51.1706 4.44606C52.4336 4.44606 53.5359 4.74425 54.4773 5.34065C55.4188 5.93704 56.1498 6.7744 56.6702 7.85272C57.1907 8.93105 57.4509 10.1901 57.4509 11.6299C57.4509 13.0637 57.1907 14.3167 56.6702 15.389C56.1498 16.4613 55.4188 17.2957 54.4773 17.8921C53.5359 18.4885 52.4336 18.7866 51.1706 18.7866ZM51.1793 16.5185C51.9979 16.5185 52.6763 16.2956 53.2143 15.8498C53.7523 15.4041 54.1498 14.8106 54.4071 14.0696C54.6703 13.3287 54.8019 12.5124 54.8019 11.6209C54.8019 10.7353 54.6703 9.92203 54.4071 9.18106C54.1498 8.43406 53.7523 7.83465 53.2143 7.38284C52.6763 6.93103 51.9979 6.70512 51.1793 6.70512C50.3547 6.70512 49.6706 6.93103 49.1268 7.38284C48.5887 7.83465 48.1882 8.43406 47.9251 9.18106C47.6678 9.92203 47.5392 10.7353 47.5392 11.6209C47.5392 12.5124 47.6678 13.3287 47.9251 14.0696C48.1882 14.8106 48.5887 15.4041 49.1268 15.8498C49.6706 16.2956 50.3547 16.5185 51.1793 16.5185ZM62.8892 18.5065L58.9245 4.62678H61.6349L64.2751 14.8197H64.4067L67.0556 4.62678H69.766L72.3975 14.7745H72.529L75.1517 4.62678H77.8621L73.9062 18.5065H71.2308L68.4941 8.48527H68.2924L65.5557 18.5065H62.8892ZM80.2458 18.6781C79.7663 18.6781 79.354 18.5035 79.009 18.1541C78.6639 17.7987 78.4914 17.3709 78.4914 16.8709C78.4914 16.377 78.6639 15.9552 79.009 15.6058C79.354 15.2504 79.7663 15.0727 80.2458 15.0727C80.7253 15.0727 81.1374 15.2504 81.4825 15.6058C81.8275 15.9552 82 16.377 82 16.8709C82 17.2023 81.9182 17.5064 81.7544 17.7836C81.5966 18.0547 81.386 18.2715 81.1228 18.4342C80.8598 18.5968 80.5674 18.6781 80.2458 18.6781Z" fill="#0D0D0D"/>
<path d="M17.7247 0V18.5063H15.1021V0H17.7247Z" fill="#3BC754"/>
</svg>
