<svg width="60" height="60" viewBox="0 0 60 60" fill="none" xmlns="http://www.w3.org/2000/svg">
<rect width="60" height="60" rx="30" fill="white"/>
<path d="M33.0904 21.3305C33.2804 21.3305 33.4704 21.4005 33.6204 21.5505C33.9104 21.8405 33.9104 22.3205 33.6204 22.6105L27.1004 29.1305C26.6204 29.6105 26.6204 30.3905 27.1004 30.8705L33.6204 37.3905C33.9104 37.6805 33.9104 38.1605 33.6204 38.4505C33.3304 38.7405 32.8504 38.7405 32.5604 38.4505L26.0404 31.9305C25.5304 31.4205 25.2404 30.7305 25.2404 30.0005C25.2404 29.2705 25.5204 28.5805 26.0404 28.0705L32.5604 21.5505C32.7104 21.4105 32.9004 21.3305 33.0904 21.3305Z" fill="#0D0D0D"/>
</svg>
