<svg width="78" height="78" viewBox="0 0 78 78" fill="none" xmlns="http://www.w3.org/2000/svg">
<rect width="78" height="78" rx="39" fill="white"/>
<path d="M35.1375 49.8379C34.9 49.8379 34.6625 49.7504 34.475 49.5629C34.1125 49.2004 34.1125 48.6004 34.475 48.2379L42.625 40.0879C43.225 39.4879 43.225 38.5129 42.625 37.9129L34.475 29.7629C34.1125 29.4004 34.1125 28.8004 34.475 28.4379C34.8375 28.0754 35.4375 28.0754 35.8 28.4379L43.95 36.5879C44.5875 37.2254 44.95 38.0879 44.95 39.0004C44.95 39.9129 44.6 40.7754 43.95 41.4129L35.8 49.5629C35.6125 49.7379 35.375 49.8379 35.1375 49.8379Z" fill="#0D0D0D"/>
</svg>
