<svg width="24" height="24" viewBox="0 0 24 24" fill="none" xmlns="http://www.w3.org/2000/svg">
<g clip-path="url(#clip0_608_2815)">
<path d="M23.6947 17.9999C23.883 17.7101 24 17.3835 24 17.0902V6.90968C24 6.6164 23.8831 6.28987 23.6947 6L12 12L23.6947 17.9999Z" fill="#00599C"/>
<path d="M13.0393 23.78L22.9609 18.6898C23.2467 18.5431 23.5064 18.2899 23.6948 18L12.0001 12L0.30542 18C0.493734 18.2899 0.753577 18.5432 1.0393 18.6898L10.9609 23.78C11.5324 24.0733 12.4678 24.0733 13.0393 23.78Z" fill="#004482"/>
<path d="M23.6947 5.99996C23.5064 5.71003 23.2465 5.45682 22.9608 5.31018L13.0392 0.219962C12.4677 -0.0733207 11.5323 -0.0733207 10.9608 0.219962L1.03922 5.31018C0.467608 5.60339 0 6.32322 0 6.90971V17.0902C0 17.3835 0.116941 17.7101 0.305333 18L12 12L23.6947 5.99996Z" fill="#659AD2"/>
<path d="M12 19.1087C7.58878 19.1087 4 15.9196 4 11.9997C4 8.07973 7.58878 4.89062 12 4.89062C14.8464 4.89062 17.5011 6.2518 18.9279 8.44292L15.4657 10.2232C14.7516 9.1265 13.4235 8.44515 12 8.44515C9.79435 8.44515 8 10.0397 8 11.9997C8 13.9596 9.79435 15.5542 12 15.5542C13.4237 15.5542 14.7518 14.8728 15.466 13.7759L18.9282 15.5561C17.5013 17.7475 14.8466 19.1087 12 19.1087Z" fill="white"/>
<path d="M19.9999 11.6053H19.111V10.8154H18.2222V11.6053H17.3333V12.3952H18.2222V13.1851H19.111V12.3952H19.9999V11.6053Z" fill="white"/>
<path d="M23.3334 11.6053H22.4445V10.8154H21.5557V11.6053H20.6667V12.3952H21.5557V13.1851H22.4445V12.3952H23.3334V11.6053Z" fill="white"/>
</g>
<defs>
<clipPath id="clip0_608_2815">
<rect width="24" height="24" fill="white"/>
</clipPath>
</defs>
</svg>
