<svg width="1200" height="356" viewBox="0 0 1200 356" fill="none" xmlns="http://www.w3.org/2000/svg">
<path d="M97.4275 276.271C66.9349 276.271 43.0119 267.742 25.6584 250.683C8.55279 233.625 0 210.015 0 179.854C0 160.324 3.71861 143.265 11.1558 128.679C18.8409 114.093 29.377 102.844 42.764 94.9333C56.3989 86.775 72.141 82.6958 89.9903 82.6958C116.021 82.6958 135.977 90.9778 149.86 107.542C163.743 123.858 170.684 145.614 170.684 172.808V184.675H36.0705C36.8142 205.194 42.5161 220.769 53.1761 231.4C64.084 241.783 79.0824 246.975 98.1712 246.975C109.079 246.975 119.243 245.492 128.664 242.525C138.332 239.311 147.505 234.119 156.181 226.95L168.453 252.537C159.776 260.201 149.116 266.135 136.473 270.337C124.077 274.293 111.062 276.271 97.4275 276.271ZM90.3621 109.396C74.9919 109.396 62.7205 114.217 53.5479 123.858C44.3754 133.253 38.7975 146.356 36.8142 163.167H138.332C137.588 145.861 133.126 132.635 124.945 123.487C116.764 114.093 105.237 109.396 90.3621 109.396Z" fill="#0D0D0D"/>
<path d="M274.395 276.271C253.571 276.271 238.077 270.461 227.913 258.842C217.749 247.222 212.667 230.164 212.667 207.667V0H251.712V205.442C251.712 230.906 262.248 243.637 283.32 243.637C286.543 243.637 289.394 243.514 291.873 243.267C294.6 243.019 297.451 242.525 300.426 241.783L299.682 273.304C290.757 275.282 282.328 276.271 274.395 276.271Z" fill="#0D0D0D"/>
<path d="M415.853 356C382.138 356 354.496 348.089 332.929 332.267L342.225 304.825C353.381 312.489 364.785 317.928 376.436 321.142C388.088 324.603 400.483 326.333 413.622 326.333C431.472 326.333 444.859 321.76 453.783 312.612C462.956 303.712 467.542 290.733 467.542 273.675V233.625C462.088 244.503 453.659 253.032 442.256 259.212C431.1 265.393 418.456 268.483 404.326 268.483C387.22 268.483 372.346 264.775 359.703 257.358C347.307 249.694 337.639 238.94 330.697 225.096C324.004 211.004 320.657 194.44 320.657 175.404C320.657 156.368 324.004 139.928 330.697 126.083C337.639 112.239 347.307 101.608 359.703 94.1917C372.346 86.5278 387.22 82.6958 404.326 82.6958C418.952 82.6958 431.843 85.9097 442.999 92.3375C454.403 98.7653 462.708 107.789 467.914 119.408L470.889 86.0333H507.331C506.587 93.6972 505.844 101.361 505.1 109.025C504.604 116.442 504.356 123.735 504.356 130.904V269.225C504.356 297.408 496.795 318.917 481.673 333.75C466.798 348.583 444.859 356 415.853 356ZM413.25 239.187C429.612 239.187 442.627 233.625 452.296 222.5C462.212 211.375 467.17 195.676 467.17 175.404C467.17 155.132 462.212 139.557 452.296 128.679C442.627 117.801 429.612 112.362 413.25 112.362C396.393 112.362 383.006 117.801 373.089 128.679C363.421 139.557 358.587 155.132 358.587 175.404C358.587 195.676 363.421 211.375 373.089 222.5C383.006 233.625 396.393 239.187 413.25 239.187Z" fill="#0D0D0D"/>
<path d="M558.389 272.933V132.387C558.389 124.971 558.141 117.307 557.646 109.396C557.398 101.485 556.902 93.6972 556.158 86.0333H592.601L595.575 119.037C600.781 106.676 608.467 97.5292 618.631 91.5958C628.795 85.6625 639.951 82.6958 652.098 82.6958C659.288 82.6958 665.361 83.4375 670.319 84.9208L669.948 118.296C665.981 116.812 662.262 115.824 658.792 115.329C655.569 114.835 651.85 114.588 647.636 114.588C636.48 114.588 627.06 117.06 619.375 122.004C611.937 126.701 606.235 133.129 602.269 141.287C598.302 149.446 596.319 158.222 596.319 167.617V272.933H558.389Z" fill="#0D0D0D"/>
<path d="M776.724 276.271C758.131 276.271 742.017 272.439 728.382 264.775C714.747 256.864 704.211 245.739 696.774 231.4C689.337 216.814 685.618 199.508 685.618 179.483C685.618 159.458 689.337 142.276 696.774 127.937C704.211 113.351 714.747 102.226 728.382 94.5625C742.017 86.6514 758.131 82.6958 776.724 82.6958C795.317 82.6958 811.431 86.6514 825.066 94.5625C838.948 102.226 849.608 113.351 857.046 127.937C864.731 142.276 868.573 159.458 868.573 179.483C868.573 199.508 864.731 216.814 857.046 231.4C849.608 245.739 838.948 256.864 825.066 264.775C811.431 272.439 795.317 276.271 776.724 276.271ZM776.724 246.975C793.086 246.975 806.101 241.289 815.769 229.917C825.438 218.544 830.272 201.733 830.272 179.483C830.272 157.233 825.438 140.546 815.769 129.421C806.101 118.049 793.086 112.362 776.724 112.362C760.362 112.362 747.347 118.049 737.678 129.421C728.258 140.546 723.548 157.233 723.548 179.483C723.548 201.733 728.258 218.544 737.678 229.917C747.347 241.289 760.362 246.975 776.724 246.975Z" fill="#0D0D0D"/>
<path d="M960.15 272.933L889.125 86.0333H928.17L978.743 228.433L1030.8 86.0333H1059.81L1111.5 229.546L1162.44 86.0333H1200L1128.6 272.933H1094.39L1044.56 137.95L995.105 272.933H960.15Z" fill="#0D0D0D"/>
</svg>
