<svg width="24" height="7" viewBox="0 0 24 7" fill="none" xmlns="http://www.w3.org/2000/svg">
<path fill-rule="evenodd" clip-rule="evenodd" d="M22.3716 2.89486C22.35 2.8993 22.3284 2.94808 22.3284 2.97466C22.324 3.15198 22.3197 3.62192 22.3197 3.9411C22.3197 3.94997 22.3327 3.96768 22.3457 3.96768C22.4106 3.97212 22.5665 3.97656 22.7008 3.97656C22.887 3.97656 22.9953 3.94997 23.0559 3.92338C23.2118 3.84358 23.2854 3.67066 23.2854 3.48003C23.2854 3.05003 22.9909 2.88598 22.5535 2.88598C22.5232 2.88159 22.4366 2.88159 22.3716 2.89486ZM23.489 4.8765C23.489 4.43763 23.1728 4.19378 22.6012 4.19378C22.5752 4.19378 22.3933 4.18934 22.35 4.19822C22.337 4.20265 22.3197 4.21153 22.3197 4.22484C22.3197 4.53958 22.3154 5.04055 22.3284 5.23558C22.337 5.31982 22.3976 5.43952 22.4713 5.47499C22.5492 5.51933 22.7268 5.52816 22.848 5.52816C23.1902 5.52816 23.489 5.33313 23.489 4.8765ZM21.4882 2.65105C21.5315 2.65105 21.6614 2.66433 21.9949 2.66433C22.311 2.66433 22.5622 2.65549 22.8697 2.65549C23.2464 2.65549 23.7661 2.79291 23.7661 3.3692C23.7661 3.65295 23.5712 3.87904 23.3157 3.98987C23.3028 3.99431 23.3028 4.00315 23.3157 4.00758C23.6795 4.1007 24 4.33124 24 4.76567C24 5.19128 23.7402 5.46167 23.3634 5.63015C23.1338 5.73211 22.848 5.76757 22.5579 5.76757C22.337 5.76757 21.7437 5.74098 21.4146 5.74986C21.3799 5.73655 21.4449 5.57694 21.4752 5.55035C21.5532 5.54591 21.6138 5.54147 21.6961 5.51489C21.813 5.48386 21.826 5.4484 21.8433 5.26664C21.852 5.11147 21.852 4.56173 21.852 4.17163C21.852 3.6352 21.8563 3.27169 21.852 3.09437C21.8476 2.95695 21.8 2.91261 21.7047 2.88598C21.6311 2.87271 21.5098 2.85496 21.4102 2.84169C21.3886 2.81949 21.4622 2.66876 21.4882 2.65105ZM18.9894 5.4085C19.0933 5.4927 19.2969 5.52816 19.4788 5.52816C19.7126 5.52816 19.9465 5.48386 20.1717 5.27548C20.4012 5.0627 20.5614 4.73465 20.5614 4.21153C20.5614 3.71056 20.3752 3.30271 19.9941 3.06334C19.7776 2.92589 19.5004 2.86827 19.1799 2.86827C19.0847 2.86827 18.9937 2.87271 18.9374 2.8993C18.9244 2.90817 18.8941 2.94808 18.8941 2.97022C18.8854 3.0589 18.8854 3.74159 18.8854 4.1406C18.8854 4.55289 18.8854 5.12919 18.8941 5.19567C18.8941 5.26221 18.9244 5.36416 18.9894 5.4085ZM18.0063 2.65105C18.0886 2.65105 18.4047 2.66433 18.5563 2.66433C18.8292 2.66433 19.024 2.65105 19.5394 2.65105C19.9724 2.65105 20.3362 2.77076 20.5961 2.99681C20.9122 3.27612 21.0768 3.66183 21.0768 4.13173C21.0768 4.80114 20.778 5.18684 20.4791 5.4085C20.1803 5.63459 19.7906 5.76757 19.2363 5.76757C18.9418 5.76757 18.4351 5.75869 18.015 5.75426H18.0106C17.989 5.7144 18.0453 5.55923 18.0799 5.55479C18.1925 5.54147 18.2228 5.53704 18.2792 5.51489C18.3701 5.47942 18.3874 5.43065 18.4004 5.26664C18.4134 4.96074 18.4091 4.59279 18.4091 4.17607C18.4091 3.87904 18.4134 3.29827 18.4047 3.11208C18.3918 2.95695 18.3268 2.91705 18.1969 2.89042C18.1319 2.87715 18.0453 2.8594 17.9241 2.84612C17.9067 2.81506 17.9847 2.67764 18.0063 2.65105Z" fill="#8E714E"/>
<path fill-rule="evenodd" clip-rule="evenodd" d="M12.7662 5.58138C12.658 5.56806 12.58 5.55035 12.4847 5.50601C12.4717 5.49714 12.4501 5.45284 12.4501 5.43508C12.4414 5.27992 12.4414 4.8366 12.4414 4.53958C12.4414 4.30017 12.4024 4.09183 12.3028 3.94553C12.1859 3.77705 12.017 3.67954 11.8005 3.67954C11.6099 3.67954 11.3544 3.81256 11.1422 3.99875C11.1379 4.00315 11.1032 4.03421 11.1075 3.98544C11.1075 3.93666 11.1162 3.83914 11.1206 3.77265C11.1249 3.71056 11.0902 3.67954 11.0902 3.67954C10.9516 3.75046 10.5619 3.84358 10.419 3.85685C10.315 3.87904 10.2891 3.981 10.3973 4.01646H10.4017C10.5186 4.05192 10.5965 4.09183 10.6571 4.13173C10.7005 4.16719 10.6961 4.21597 10.6961 4.25587C10.7005 4.58836 10.7005 5.09816 10.6875 5.37747C10.6832 5.4883 10.6528 5.52816 10.5749 5.54591L10.5835 5.54147C10.5229 5.55479 10.4753 5.56806 10.4016 5.57694C10.3757 5.60353 10.3757 5.74542 10.4016 5.77645C10.4493 5.77645 10.7005 5.76313 10.9084 5.76313C11.1942 5.76313 11.3414 5.77645 11.415 5.77645C11.4454 5.74098 11.454 5.60796 11.4367 5.57694C11.3544 5.5725 11.2938 5.56367 11.2375 5.54591C11.1595 5.52816 11.1379 5.4883 11.1335 5.39518C11.1249 5.16021 11.1249 4.66372 11.1249 4.3268C11.1249 4.23368 11.1509 4.18934 11.1768 4.16275C11.2764 4.07411 11.4367 4.01202 11.5796 4.01202C11.7182 4.01202 11.8091 4.05636 11.8784 4.11402C11.9737 4.19378 12.004 4.30905 12.017 4.39329C12.0386 4.58392 12.03 4.96074 12.03 5.28879C12.03 5.46611 12.017 5.51045 11.952 5.5326C11.9217 5.54591 11.8438 5.56367 11.7528 5.5725C11.7225 5.60353 11.7312 5.74098 11.7528 5.77201C11.8784 5.77201 12.0257 5.75869 12.2422 5.75869C12.5107 5.75869 12.6839 5.77201 12.7532 5.77201C12.7749 5.74542 12.7836 5.61684 12.7662 5.58138ZM13.9658 3.88792C13.7363 3.88792 13.5934 4.06968 13.5934 4.35338C13.5934 4.64153 13.7189 4.97402 14.0741 4.97402C14.1347 4.97402 14.2473 4.94743 14.2992 4.88538C14.3815 4.80558 14.4379 4.64597 14.4379 4.47753C14.4379 4.10958 14.2603 3.88792 13.9658 3.88792ZM13.9355 5.84737C13.8489 5.84737 13.7882 5.87396 13.7493 5.89615C13.5674 6.01581 13.4851 6.13108 13.4851 6.26854C13.4851 6.39708 13.5327 6.49903 13.6367 6.58771C13.7623 6.69854 13.9355 6.75176 14.1563 6.75176C14.5981 6.75176 14.793 6.50791 14.793 6.26854C14.793 6.10006 14.7107 5.98923 14.5418 5.92718C14.4205 5.87396 14.1997 5.84737 13.9355 5.84737ZM13.9658 7C13.7016 7 13.5111 6.94235 13.3465 6.81381C13.1863 6.68966 13.117 6.50347 13.117 6.37493C13.117 6.33947 13.1257 6.24191 13.2036 6.15327C13.2512 6.10006 13.3552 5.9981 13.602 5.82522C13.6107 5.82079 13.615 5.81635 13.615 5.80747C13.615 5.7986 13.6063 5.78972 13.5977 5.78532C13.3941 5.70552 13.3335 5.57694 13.3162 5.50601V5.49714C13.3119 5.47055 13.3032 5.44396 13.3422 5.41733C13.3725 5.39518 13.4158 5.3686 13.4634 5.33757C13.537 5.29323 13.615 5.24445 13.6627 5.20455C13.6713 5.19567 13.6713 5.18684 13.6713 5.17796C13.6713 5.16909 13.6627 5.16021 13.654 5.15581C13.3509 5.05382 13.1993 4.82329 13.1993 4.47753C13.1993 4.25143 13.2989 4.04749 13.4764 3.91895C13.5977 3.82139 13.9008 3.70173 14.1001 3.70173H14.1131C14.3166 3.70612 14.4292 3.75046 14.5894 3.80812C14.676 3.83914 14.7583 3.85242 14.8709 3.85242C15.0398 3.85242 15.1134 3.79924 15.174 3.73719C15.1784 3.74603 15.1871 3.76822 15.1914 3.82583C15.1957 3.88348 15.1784 3.96768 15.1351 4.02978C15.1004 4.07851 15.0225 4.11402 14.9445 4.11402H14.9229C14.8449 4.10514 14.8103 4.09626 14.8103 4.09626L14.793 4.10514C14.7886 4.11402 14.793 4.12285 14.7973 4.13617L14.8016 4.14504C14.8103 4.18494 14.8276 4.30461 14.8276 4.33567C14.8276 4.69919 14.6847 4.85875 14.5331 4.97846C14.3859 5.08928 14.217 5.16021 14.0264 5.17796C14.0221 5.17796 14.0048 5.17796 13.9658 5.1824C13.9441 5.1824 13.9138 5.18684 13.9095 5.18684H13.9052C13.8705 5.19567 13.7839 5.24001 13.7839 5.31538C13.7839 5.38187 13.8229 5.46167 14.0091 5.47499C14.0481 5.47942 14.087 5.47942 14.1304 5.48386C14.3772 5.50157 14.6847 5.52376 14.8276 5.5725C15.0268 5.64787 15.1524 5.82962 15.1524 6.04688C15.1524 6.37493 14.9229 6.68083 14.5418 6.87142C14.3556 6.95566 14.1693 7 13.9658 7ZM16.4343 3.91007C16.3433 3.91007 16.261 3.93222 16.2004 3.97656C16.0315 4.08295 15.9449 4.29577 15.9449 4.60607C15.9449 5.18684 16.2307 5.59469 16.6378 5.59469C16.7591 5.59469 16.8544 5.55923 16.9367 5.4883C17.0622 5.38187 17.1272 5.16909 17.1272 4.87206C17.1272 4.29577 16.8457 3.91007 16.4343 3.91007ZM16.5123 5.80747C15.776 5.80747 15.5119 5.25333 15.5119 4.73465C15.5119 4.37114 15.6548 4.09183 15.9406 3.89232C16.1441 3.76378 16.3867 3.69285 16.6032 3.69285C17.1662 3.69285 17.5603 4.10514 17.5603 4.69919C17.5603 5.1026 17.4044 5.42177 17.1055 5.61684C16.9626 5.71435 16.7158 5.80747 16.5123 5.80747ZM8.79498 3.91007C8.70401 3.91007 8.62176 3.93222 8.5611 3.97656C8.39222 4.08295 8.30559 4.29577 8.30559 4.60607C8.30559 5.18684 8.59141 5.59469 8.9985 5.59469C9.11978 5.59469 9.21504 5.55923 9.29733 5.4883C9.4229 5.38187 9.48789 5.16909 9.48789 4.87206C9.48789 4.29577 9.2107 3.91007 8.79498 3.91007ZM8.87294 5.80747C8.13671 5.80747 7.87253 5.25333 7.87253 4.73465C7.87253 4.37114 8.01544 4.09183 8.30126 3.89232C8.50482 3.76378 8.74733 3.69285 8.96386 3.69285C9.52687 3.69285 9.92095 4.10514 9.92095 4.69919C9.92095 5.1026 9.76504 5.42177 9.46621 5.61684C9.32764 5.71435 9.0808 5.80747 8.87294 5.80747ZM3.92297 5.76313C3.91429 5.74986 3.90562 5.70996 3.90996 5.66118C3.90996 5.62572 3.91863 5.60353 3.92297 5.59469C4.01389 5.58138 4.06154 5.56806 4.11348 5.55479C4.20011 5.5326 4.23476 5.48386 4.23909 5.37303C4.2521 5.10704 4.2521 4.60163 4.24776 4.25143V4.24256C4.24776 4.20265 4.24776 4.15388 4.20011 4.11841C4.13083 4.07411 4.04853 4.03421 3.94027 4.00315C3.90129 3.98987 3.87532 3.96768 3.87965 3.9411C3.87965 3.91451 3.90562 3.88348 3.96194 3.87461C4.10485 3.86129 4.47726 3.76822 4.62451 3.70173C4.63318 3.71056 4.64618 3.73719 4.64618 3.77265L4.64185 3.82139C4.63751 3.87017 4.63318 3.92782 4.63318 3.98544C4.63318 4.00315 4.65052 4.01646 4.66782 4.01646C4.67649 4.01646 4.68516 4.01202 4.69383 4.00758C4.97098 3.78593 5.22216 3.70612 5.35206 3.70612C5.5643 3.70612 5.72885 3.80812 5.85445 4.0209C5.86308 4.03421 5.87175 4.03861 5.88476 4.03861C5.89343 4.03861 5.9064 4.03421 5.91073 4.02534C6.16624 3.82583 6.42176 3.70612 6.59064 3.70612C6.99339 3.70612 7.2316 4.01202 7.2316 4.5307C7.2316 4.67699 7.2316 4.86763 7.22727 5.04055C7.22727 5.19567 7.22293 5.33757 7.22293 5.43952C7.22293 5.46167 7.25324 5.5326 7.30089 5.54591C7.36151 5.57694 7.4438 5.59025 7.55207 5.60796H7.5564C7.56507 5.63899 7.54773 5.75426 7.53043 5.77645C7.50442 5.77645 7.46544 5.77645 7.42216 5.77201C7.33987 5.76757 7.22293 5.76313 7.09303 5.76313C6.82451 5.76313 6.68594 5.76757 6.55166 5.77645C6.54303 5.74098 6.53869 5.63459 6.55166 5.60796C6.62962 5.59469 6.6686 5.58138 6.71625 5.56806C6.80288 5.54147 6.82451 5.50157 6.82885 5.38631C6.82885 5.30211 6.84615 4.58392 6.82018 4.411C6.7942 4.23368 6.66426 4.02534 6.37844 4.02534C6.27018 4.02534 6.10129 4.06968 5.93671 4.19822C5.92808 4.20709 5.9194 4.22924 5.9194 4.24256V4.24699C5.93671 4.34007 5.93671 4.4465 5.93671 4.61051V4.89865C5.93671 5.09816 5.93237 5.28435 5.93671 5.42621C5.93671 5.52376 5.99303 5.54591 6.04068 5.56367C6.06665 5.56806 6.08395 5.5725 6.10563 5.57694C6.14461 5.58581 6.18359 5.59469 6.2442 5.60796C6.25287 5.62572 6.25287 5.68333 6.23987 5.73211C6.23553 5.75869 6.22686 5.77201 6.22257 5.77645C6.07532 5.77201 5.92374 5.76757 5.70287 5.76757C5.63792 5.76757 5.52532 5.77201 5.43002 5.77201C5.35206 5.77201 5.27844 5.77645 5.23516 5.77645C5.23083 5.76757 5.22216 5.73655 5.22216 5.68777C5.22216 5.64787 5.23083 5.61684 5.2395 5.60796C5.26114 5.60353 5.27844 5.59913 5.30012 5.59913C5.35206 5.59025 5.39538 5.58138 5.43869 5.5725C5.51231 5.55035 5.53829 5.51045 5.54262 5.41294C5.55563 5.19128 5.56859 4.55733 5.53829 4.39772C5.48634 4.1406 5.34343 4.01202 5.11389 4.01202C4.97965 4.01202 4.81073 4.07851 4.67216 4.18494C4.65052 4.20265 4.63318 4.24699 4.63318 4.2869V4.54845C4.63318 4.86763 4.63318 5.26664 4.63751 5.43952C4.64185 5.4927 4.65915 5.55479 4.75879 5.57694C4.78042 5.58138 4.81507 5.59025 4.85838 5.59469L4.93634 5.60796C4.94501 5.63459 4.94067 5.74098 4.92333 5.77645C4.88002 5.77645 4.82807 5.77201 4.76742 5.77201C4.67649 5.76757 4.55956 5.76313 4.42965 5.76313C4.27807 5.76313 4.16981 5.76757 4.08318 5.77201C4.02256 5.76313 3.97491 5.76313 3.92297 5.76313Z" fill="#442D22"/>
<path fill-rule="evenodd" clip-rule="evenodd" d="M1.645 6.82712L1.46745 6.76503C1.46745 6.76503 1.48913 5.8385 1.16433 5.77201C0.947796 5.51489 1.19897 -5.13362 1.97847 5.73655C1.97847 5.73655 1.70999 5.87396 1.66234 6.10893C1.61036 6.33947 1.645 6.82712 1.645 6.82712Z" fill="white"/>
<path fill-rule="evenodd" clip-rule="evenodd" d="M1.645 6.82712L1.46745 6.76503C1.46745 6.76503 1.48913 5.8385 1.16433 5.77201C0.947796 5.51489 1.19897 -5.13362 1.97847 5.73655C1.97847 5.73655 1.70999 5.87396 1.66234 6.10893C1.61036 6.33947 1.645 6.82712 1.645 6.82712Z" fill="#A6A385"/>
<path fill-rule="evenodd" clip-rule="evenodd" d="M1.7403 5.93161C1.7403 5.93161 3.29501 4.88538 2.93123 2.70867C2.58046 1.12604 1.75327 0.607359 1.66234 0.407851C1.56275 0.265997 1.46745 0.0177525 1.46745 0.0177525L1.53244 4.41987C1.53244 4.42431 1.39816 5.76757 1.7403 5.93161Z" fill="white"/>
<path fill-rule="evenodd" clip-rule="evenodd" d="M1.7403 5.93161C1.7403 5.93161 3.29501 4.88538 2.93123 2.70867C2.58046 1.12604 1.75327 0.607359 1.66234 0.407851C1.56275 0.265997 1.46745 0.0177525 1.46745 0.0177525L1.53244 4.41987C1.53244 4.42431 1.39816 5.76757 1.7403 5.93161Z" fill="#499D4A"/>
<path fill-rule="evenodd" clip-rule="evenodd" d="M1.37652 5.98923C1.37652 5.98923 -0.0829196 4.96958 0.00370942 3.17417C0.0859625 1.37872 1.11668 0.496531 1.31587 0.336924C1.44581 0.19507 1.45015 0.141854 1.45882 0C1.54974 0.199508 1.53244 2.98354 1.54541 3.31159C1.58439 4.57504 1.47612 5.74986 1.37652 5.98923Z" fill="white"/>
<path fill-rule="evenodd" clip-rule="evenodd" d="M1.37652 5.98923C1.37652 5.98923 -0.0829196 4.96958 0.00370942 3.17417C0.0859625 1.37872 1.11668 0.496531 1.31587 0.336924C1.44581 0.19507 1.45015 0.141854 1.45882 0C1.54974 0.199508 1.53244 2.98354 1.54541 3.31159C1.58439 4.57504 1.47612 5.74986 1.37652 5.98923Z" fill="#58AA50"/>
</svg>
