<svg width="88" height="24" viewBox="0 0 88 24" fill="none" xmlns="http://www.w3.org/2000/svg">
<path fill-rule="evenodd" clip-rule="evenodd" d="M82.0293 9.92523C81.95 9.94045 81.8706 10.1077 81.8706 10.1988C81.8548 10.8068 81.8389 12.418 81.8389 13.5123C81.8389 13.5428 81.8864 13.6035 81.9341 13.6035C82.1722 13.6187 82.7439 13.6339 83.2361 13.6339C83.919 13.6339 84.3159 13.5428 84.5383 13.4516C85.1099 13.178 85.3798 12.5851 85.3798 11.9315C85.3798 10.4572 84.3 9.8948 82.6963 9.8948C82.5851 9.87973 82.2676 9.87973 82.0293 9.92523ZM86.1263 16.7194C86.1263 15.2147 84.967 14.3787 82.871 14.3787C82.7757 14.3787 82.1088 14.3635 81.95 14.3939C81.9023 14.4091 81.8389 14.4395 81.8389 14.4852C81.8389 15.5643 81.823 17.2819 81.8707 17.9505C81.9023 18.2394 82.1247 18.6498 82.3947 18.7714C82.6804 18.9234 83.3315 18.9537 83.776 18.9537C85.0306 18.9537 86.1263 18.285 86.1263 16.7194ZM78.7901 9.08933C78.9488 9.08933 79.4252 9.13483 80.6479 9.13483C81.8071 9.13483 82.728 9.10454 83.8555 9.10454C85.2369 9.10454 87.1425 9.57568 87.1425 11.5515C87.1425 12.5244 86.4278 13.2996 85.491 13.6796C85.4434 13.6948 85.4434 13.7251 85.491 13.7403C86.8248 14.0596 88 14.85 88 16.3395C88 17.7987 87.0472 18.7257 85.6657 19.3034C84.8241 19.6529 83.776 19.7745 82.7121 19.7745C81.9023 19.7745 79.727 19.6834 78.5201 19.7138C78.3931 19.6682 78.6313 19.1209 78.7424 19.0298C79.0282 19.0146 79.2505 18.9993 79.5522 18.9082C79.981 18.8018 80.0285 18.6802 80.0921 18.0571C80.1239 17.5251 80.1239 15.6402 80.1239 14.3027C80.1239 12.4635 80.1398 11.2172 80.1239 10.6093C80.108 10.1381 79.9333 9.9861 79.584 9.8948C79.3141 9.84929 78.8694 9.78843 78.5042 9.74292C78.4248 9.66684 78.6947 9.15005 78.7901 9.08933ZM69.6277 18.5434C70.0089 18.8321 70.7552 18.9537 71.4221 18.9537C72.2796 18.9537 73.137 18.8018 73.9628 18.0874C74.8044 17.3578 75.3919 16.2331 75.3919 14.4395C75.3919 12.7219 74.709 11.3236 73.3118 10.5029C72.5178 10.0316 71.5014 9.83408 70.3264 9.83408C69.9771 9.83408 69.6436 9.84929 69.4372 9.94045C69.3895 9.97088 69.2784 10.1077 69.2784 10.1836C69.2466 10.4877 69.2466 12.8283 69.2466 14.1964C69.2466 15.6099 69.2466 17.5858 69.2784 17.8137C69.2784 18.0418 69.3895 18.3914 69.6277 18.5434ZM66.0231 9.08933C66.3249 9.08933 67.484 9.13483 68.0398 9.13483C69.0403 9.13483 69.7547 9.08933 71.6444 9.08933C73.2323 9.08933 74.5661 9.49974 75.5189 10.2748C76.678 11.2324 77.2815 12.5548 77.2815 14.1659C77.2815 16.461 76.1858 17.7835 75.0901 18.5434C73.9946 19.3186 72.5653 19.7745 70.5329 19.7745C69.4531 19.7745 67.5953 19.7441 66.0549 19.7289H66.039C65.9597 19.5922 66.166 19.0602 66.2931 19.045C66.7059 18.9993 66.8171 18.9841 67.0236 18.9082C67.357 18.7866 67.4206 18.6194 67.4683 18.0571C67.5158 17.0083 67.4999 15.7467 67.4999 14.3179C67.4999 13.2996 67.5158 11.3084 67.484 10.67C67.4365 10.1381 67.1983 10.0013 66.7218 9.91002C66.4837 9.86451 66.166 9.80364 65.7215 9.75814C65.6579 9.65162 65.9438 9.18048 66.0231 9.08933Z" fill="#8E714E"/>
<path fill-rule="evenodd" clip-rule="evenodd" d="M46.8095 19.1361C46.4125 19.0905 46.1267 19.0298 45.7772 18.8778C45.7297 18.8473 45.6502 18.6954 45.6502 18.6346C45.6184 18.1026 45.6184 16.5826 45.6184 15.5643C45.6184 14.7434 45.4756 14.0291 45.1103 13.5275C44.6815 12.9499 44.0623 12.6156 43.2683 12.6156C42.5696 12.6156 41.6327 13.0716 40.8547 13.71C40.8388 13.7251 40.7118 13.8316 40.7277 13.6643C40.7277 13.4971 40.7595 13.1628 40.7754 12.9348C40.7913 12.7219 40.6642 12.6156 40.6642 12.6156C40.156 12.8587 38.7269 13.178 38.2029 13.2235C37.8218 13.2996 37.7266 13.6491 38.1236 13.7707H38.1395C38.5681 13.8923 38.8539 14.0291 39.0762 14.1659C39.235 14.2875 39.2191 14.4548 39.2191 14.5916C39.235 15.7315 39.235 17.4794 39.1875 18.437C39.1716 18.817 39.0604 18.9537 38.7746 19.0146L38.8062 18.9993C38.584 19.045 38.4093 19.0905 38.1393 19.1209C38.0441 19.2121 38.0441 19.6986 38.1393 19.805C38.314 19.805 39.235 19.7593 39.9973 19.7593C41.0453 19.7593 41.5852 19.805 41.8552 19.805C41.9663 19.6834 41.9981 19.2273 41.9345 19.1209C41.6327 19.1057 41.4105 19.0754 41.2041 19.0146C40.9183 18.9537 40.8388 18.817 40.8229 18.4978C40.7913 17.6922 40.7913 15.9899 40.7913 14.8347C40.7913 14.5155 40.8865 14.3635 40.9817 14.2723C41.3469 13.9684 41.9345 13.7555 42.4585 13.7555C42.9666 13.7555 43.3001 13.9075 43.5542 14.1052C43.9035 14.3787 44.0146 14.7739 44.0623 15.0627C44.1416 15.7163 44.11 17.0083 44.11 18.133C44.11 18.7409 44.0623 18.893 43.8241 18.9689C43.713 19.0146 43.4272 19.0754 43.0936 19.1057C42.9825 19.2121 43.0143 19.6834 43.0936 19.7897C43.5542 19.7897 44.0941 19.7441 44.888 19.7441C45.8725 19.7441 46.5077 19.7897 46.7618 19.7897C46.8411 19.6986 46.8731 19.2577 46.8095 19.1361ZM51.208 13.33C50.3664 13.33 49.8424 13.9532 49.8424 14.9259C49.8424 15.9138 50.3028 17.0538 51.605 17.0538C51.8272 17.0538 52.2401 16.9626 52.4306 16.7499C52.7323 16.4763 52.9388 15.929 52.9388 15.3515C52.9388 14.09 52.2876 13.33 51.208 13.33ZM51.0967 20.0481C50.7792 20.0481 50.5568 20.1393 50.414 20.2154C49.747 20.6257 49.4454 21.0209 49.4454 21.4921C49.4454 21.9328 49.6199 22.2824 50.0012 22.5864C50.4616 22.9664 51.0967 23.1489 51.9066 23.1489C53.5263 23.1489 54.2409 22.3128 54.2409 21.4921C54.2409 20.9145 53.9391 20.5345 53.3199 20.3218C52.8752 20.1393 52.0654 20.0481 51.0967 20.0481ZM51.208 24C50.2393 24 49.5406 23.8023 48.9373 23.3616C48.3497 22.936 48.0956 22.2976 48.0956 21.8569C48.0956 21.7353 48.1274 21.4008 48.4133 21.0969C48.5878 20.9145 48.9689 20.5649 49.8741 19.9722C49.9058 19.957 49.9217 19.9418 49.9217 19.9113C49.9217 19.8809 49.8899 19.8505 49.8582 19.8354C49.1118 19.5618 48.8896 19.1209 48.826 18.8778V18.8473C48.8102 18.7562 48.7785 18.665 48.9214 18.5737C49.0325 18.4978 49.1913 18.4066 49.3659 18.3002C49.6358 18.1482 49.9217 17.981 50.0964 17.8442C50.1282 17.8137 50.1282 17.7835 50.1282 17.753C50.1282 17.7226 50.0964 17.6922 50.0646 17.6771C48.9532 17.3274 48.3974 16.537 48.3974 15.3515C48.3974 14.5763 48.7626 13.8771 49.4136 13.4364C49.8582 13.1019 50.9697 12.6916 51.7002 12.6916H51.7479C52.4942 12.7067 52.907 12.8587 53.4945 13.0564C53.8121 13.1628 54.1139 13.2083 54.5267 13.2083C55.146 13.2083 55.4159 13.026 55.6382 12.8132C55.6541 12.8435 55.6859 12.9196 55.7018 13.1171C55.7177 13.3148 55.6541 13.6035 55.4952 13.8164C55.3682 13.9835 55.0825 14.1052 54.7967 14.1052H54.7172C54.4313 14.0748 54.3043 14.0443 54.3043 14.0443L54.2409 14.0748C54.225 14.1052 54.2409 14.1355 54.2568 14.1811L54.2727 14.2116C54.3043 14.3484 54.3679 14.7587 54.3679 14.8652C54.3679 16.1115 53.8439 16.6586 53.2881 17.069C52.7482 17.449 52.129 17.6922 51.4303 17.753C51.4144 17.753 51.3509 17.753 51.208 17.7682C51.1285 17.7682 51.0174 17.7835 51.0015 17.7835H50.9856C50.8586 17.8137 50.5411 17.9658 50.5411 18.2242C50.5411 18.4521 50.684 18.7257 51.3667 18.7714C51.5096 18.7866 51.6525 18.7866 51.8113 18.8018C52.7164 18.8625 53.8439 18.9386 54.3679 19.1057C55.0983 19.3641 55.5588 19.9873 55.5588 20.7322C55.5588 21.8569 54.7172 22.9057 53.3199 23.5592C52.6371 23.848 51.9543 24 51.208 24ZM60.2591 13.406C59.9256 13.406 59.6238 13.4819 59.4016 13.6339C58.7823 13.9987 58.4647 14.7284 58.4647 15.7922C58.4647 17.7835 59.5127 19.1818 61.0054 19.1818C61.45 19.1818 61.7993 19.0602 62.1011 18.817C62.5615 18.4521 62.7998 17.7226 62.7998 16.7042C62.7998 14.7284 61.7675 13.406 60.2591 13.406ZM60.5449 19.9113C57.8455 19.9113 56.8768 18.0114 56.8768 16.2331C56.8768 14.9868 57.4008 14.0291 58.4488 13.3451C59.1952 12.9044 60.0844 12.6612 60.8783 12.6612C62.9425 12.6612 64.3877 14.0748 64.3877 16.1115C64.3877 17.4946 63.816 18.5889 62.7203 19.2577C62.1963 19.5921 61.2914 19.9113 60.5449 19.9113ZM32.2483 13.406C31.9147 13.406 31.6131 13.4819 31.3907 13.6339C30.7715 13.9987 30.4538 14.7284 30.4538 15.7922C30.4538 17.7835 31.5018 19.1818 32.9945 19.1818C33.4392 19.1818 33.7885 19.0602 34.0902 18.817C34.5506 18.4521 34.7889 17.7226 34.7889 16.7042C34.7889 14.7284 33.7726 13.406 32.2483 13.406ZM32.5341 19.9113C29.8346 19.9113 28.8659 18.0114 28.8659 16.2331C28.8659 14.9868 29.3899 14.0291 30.4379 13.3451C31.1844 12.9044 32.0735 12.6612 32.8675 12.6612C34.9319 12.6612 36.3768 14.0748 36.3768 16.1115C36.3768 17.4946 35.8051 18.5889 34.7094 19.2577C34.2013 19.5921 33.2963 19.9113 32.5341 19.9113ZM14.3842 19.7593C14.3524 19.7138 14.3206 19.577 14.3365 19.4098C14.3365 19.2882 14.3683 19.2121 14.3842 19.1818C14.7176 19.1361 14.8923 19.0905 15.0828 19.045C15.4004 18.9689 15.5274 18.8018 15.5433 18.4218C15.591 17.5098 15.591 15.777 15.5751 14.5763V14.5459C15.5751 14.4091 15.5751 14.2419 15.4004 14.1203C15.1464 13.9684 14.8446 13.8316 14.4476 13.7251C14.3047 13.6796 14.2095 13.6035 14.2254 13.5123C14.2254 13.4212 14.3206 13.3148 14.5271 13.2844C15.0511 13.2387 16.4166 12.9196 16.9565 12.6916C16.9883 12.7219 17.036 12.8132 17.036 12.9348L17.0201 13.1019C17.0042 13.2691 16.9883 13.4668 16.9883 13.6643C16.9883 13.7251 17.0519 13.7707 17.1153 13.7707C17.1471 13.7707 17.1789 13.7555 17.2107 13.7403C18.2269 12.9803 19.1479 12.7067 19.6242 12.7067C20.4024 12.7067 21.0058 13.0564 21.4663 13.7859C21.498 13.8316 21.5298 13.8467 21.5775 13.8467C21.6093 13.8467 21.6568 13.8316 21.6727 13.8012C22.6096 13.1171 23.5464 12.7067 24.1657 12.7067C25.6424 12.7067 26.5159 13.7555 26.5159 15.5338C26.5159 16.0354 26.5159 16.689 26.5 17.2819C26.5 17.8137 26.4841 18.3002 26.4841 18.6498C26.4841 18.7257 26.5952 18.9689 26.7699 19.0146C26.9922 19.1209 27.2939 19.1666 27.6909 19.2273H27.7068C27.7386 19.3337 27.675 19.7289 27.6116 19.805C27.5162 19.805 27.3733 19.805 27.2146 19.7897C26.9129 19.7745 26.4841 19.7593 26.0078 19.7593C25.0232 19.7593 24.5151 19.7745 24.0227 19.805C23.9911 19.6834 23.9752 19.3186 24.0227 19.2273C24.3086 19.1818 24.4515 19.1361 24.6262 19.0905C24.9439 18.9993 25.0232 18.8625 25.0391 18.4673C25.0391 18.1787 25.1025 15.7163 25.0073 15.1234C24.9121 14.5155 24.4356 13.8012 23.3876 13.8012C22.9906 13.8012 22.3714 13.9532 21.7679 14.3939C21.7363 14.4243 21.7045 14.5003 21.7045 14.5459V14.5611C21.7679 14.8802 21.7679 15.2452 21.7679 15.8074V16.7954C21.7679 17.4794 21.752 18.1178 21.7679 18.6041C21.7679 18.9386 21.9744 19.0146 22.1491 19.0754C22.2444 19.0905 22.3078 19.1057 22.3873 19.1209C22.5302 19.1514 22.6732 19.1818 22.8954 19.2273C22.9272 19.2882 22.9272 19.4857 22.8795 19.6529C22.8636 19.7441 22.8318 19.7897 22.8161 19.805C22.2762 19.7897 21.7204 19.7745 20.9105 19.7745C20.6724 19.7745 20.2595 19.7897 19.9101 19.7897C19.6242 19.7897 19.3543 19.805 19.1956 19.805C19.1797 19.7745 19.1479 19.6682 19.1479 19.5009C19.1479 19.3641 19.1797 19.2577 19.2115 19.2273C19.2908 19.2121 19.3543 19.197 19.4338 19.197C19.6242 19.1666 19.783 19.1361 19.9419 19.1057C20.2118 19.0298 20.307 18.893 20.3229 18.5586C20.3706 17.7987 20.4182 15.6251 20.307 15.0779C20.1166 14.1964 19.5926 13.7555 18.7509 13.7555C18.2587 13.7555 17.6393 13.9835 17.1312 14.3484C17.0519 14.4091 16.9883 14.5611 16.9883 14.6979V15.5947C16.9883 16.689 16.9883 18.0571 17.0042 18.6498C17.0201 18.8321 17.0835 19.045 17.4489 19.1209C17.5282 19.1361 17.6552 19.1666 17.8141 19.1818L18.0999 19.2273C18.1317 19.3186 18.1158 19.6834 18.0522 19.805C17.8934 19.805 17.7029 19.7897 17.4805 19.7897C17.1471 19.7745 16.7184 19.7593 16.2421 19.7593C15.6863 19.7593 15.2893 19.7745 14.9716 19.7897C14.7494 19.7593 14.5747 19.7593 14.3842 19.7593Z" fill="#442D22"/>
<path fill-rule="evenodd" clip-rule="evenodd" d="M6.03167 23.4073L5.38065 23.1944C5.38065 23.1944 5.46013 20.0177 4.2692 19.7897C3.47525 18.9082 4.39623 -17.601 7.25439 19.6682C7.25439 19.6682 6.26998 20.1393 6.09526 20.9449C5.90465 21.7353 6.03167 23.4073 6.03167 23.4073Z" fill="white"/>
<path fill-rule="evenodd" clip-rule="evenodd" d="M6.03167 23.4073L5.38065 23.1944C5.38065 23.1944 5.46013 20.0177 4.2692 19.7897C3.47525 18.9082 4.39623 -17.601 7.25439 19.6682C7.25439 19.6682 6.26998 20.1393 6.09526 20.9449C5.90465 21.7353 6.03167 23.4073 6.03167 23.4073Z" fill="#A6A385"/>
<path fill-rule="evenodd" clip-rule="evenodd" d="M6.38111 20.337C6.38111 20.337 12.0817 16.7499 10.7478 9.28685C9.46168 3.86071 6.42865 2.08238 6.09526 1.39835C5.73008 0.91199 5.38065 0.0608657 5.38065 0.0608657L5.61895 15.1539C5.61895 15.1691 5.12659 19.7745 6.38111 20.337Z" fill="white"/>
<path fill-rule="evenodd" clip-rule="evenodd" d="M6.38111 20.337C6.38111 20.337 12.0817 16.7499 10.7478 9.28685C9.46168 3.86071 6.42865 2.08238 6.09526 1.39835C5.73008 0.91199 5.38065 0.0608657 5.38065 0.0608657L5.61895 15.1539C5.61895 15.1691 5.12659 19.7745 6.38111 20.337Z" fill="#499D4A"/>
<path fill-rule="evenodd" clip-rule="evenodd" d="M5.04726 20.5345C5.04726 20.5345 -0.304039 17.0386 0.0136012 10.8829C0.315196 4.72705 4.09449 1.70239 4.82485 1.15517C5.30131 0.668812 5.31721 0.486357 5.349 0C5.68239 0.684028 5.61895 10.2293 5.66649 11.354C5.80941 15.6859 5.41244 19.7138 5.04726 20.5345Z" fill="white"/>
<path fill-rule="evenodd" clip-rule="evenodd" d="M5.04726 20.5345C5.04726 20.5345 -0.304039 17.0386 0.0136012 10.8829C0.315196 4.72705 4.09449 1.70239 4.82485 1.15517C5.30131 0.668812 5.31721 0.486357 5.349 0C5.68239 0.684028 5.61895 10.2293 5.66649 11.354C5.80941 15.6859 5.41244 19.7138 5.04726 20.5345Z" fill="#58AA50"/>
</svg>
